<svg width="80" height="80" viewBox="0 0 80 80" fill="none" xmlns="http://www.w3.org/2000/svg">
<g clip-path="url(#clip0_11_81)">
<path d="M80 0L0 80V0H80Z" fill="white"/>
<path d="M0 80L80 0L80 80L0 80Z" fill="#7B7B7B"/>
<rect x="6" y="6" width="68" height="68" fill="#BDBDBD"/>
<path d="M14.5 31V27.5H15H16.5V26V24.5H17H18.5V23V22.5H19H20.5V21V20.5H21H22.5V19V18.5H24H25.5V17V16.5H27H28.5V15V14.5H32H33.5V13H46.5V14.5H48H51.5V15V16.5H53H54.5V17V18.5H56H57.5V19V20.5H59H59.5V21V22.5H61H61.5V23V24.5H63H63.5V26V27.5H65H65.5V31V32.5H67V47.5H65.5V49V52.5H65H63.5V54V55.5H63H61.5V57V57.5H61H59.5V59V59.5H59H57.5V61V61.5H56H54.5V63V63.5H53H51.5V65V65.5H47H45.5V67H33.5V65.5H32H28.5V65V63.5H27H25.5V63V61.5H24H22.5V61V59.5H21H20.5V59V57.5H19H18.5V57V55.5H17H16.5V54V52.5H15H14.5V49V47.5H13V32.5H14.5V31Z" fill="#FFFD01" stroke="black" stroke-width="3" stroke-miterlimit="16"/>
<path d="M25 55V53H27V51H29V49H31V47H33V45H47V47H49V49H51V51H53V53H55V55" stroke="black" stroke-width="3"/>
<path d="M29 32V30H27V28H25V26M29 32H31M29 32V34H27V36H25V38M31 32V34H33V36H35V38M31 32V30H33V28H35V26" stroke="black" stroke-width="2"/>
<path d="M49 32V30H47V28H45V26M49 32H51M49 32V34H47V36H45V38M51 32V34H53V36H55V38M51 32V30H53V28H55V26" stroke="black" stroke-width="2"/>
</g>
<defs>
<clipPath id="clip0_11_81">
<rect width="80" height="80" fill="white"/>
</clipPath>
</defs>
</svg>
