<svg width="40" height="80" viewBox="0 0 40 80" fill="none" xmlns="http://www.w3.org/2000/svg">
<g clip-path="url(#clip0_11_353)">
<rect width="40" height="80" fill="black"/>
<g clip-path="url(#clip1_11_353)">
<path d="M37 7L37 39L34 39L34 36L31 36L31 33L28 33L28 13L31 13L31 10L34 10L34 7L37 7Z" fill="#F71701"/>
<path d="M37 42L37 74L34 74L34 71L31 71L31 68L28 68L28 48L31 48L31 45L34 45L34 42L37 42Z" fill="#F71701"/>
<rect width="2" height="2" transform="matrix(1 0 0 -1 7 42)" fill="#7B0600"/>
<rect width="2" height="2" transform="matrix(1 0 0 -1 7 42)" fill="#7B0600"/>
<rect width="2" height="2" transform="matrix(1 0 0 -1 10 45)" fill="#7B0600"/>
<rect width="2" height="2" transform="matrix(1 0 0 -1 10 45)" fill="#7B0600"/>
<rect width="2" height="2" transform="matrix(1 0 0 -1 10 39)" fill="#7B0600"/>
<rect width="2" height="2" transform="matrix(1 0 0 -1 10 39)" fill="#7B0600"/>
<rect width="2" height="2" transform="matrix(1 0 0 -1 13 42)" fill="#7B0600"/>
<rect width="2" height="2" transform="matrix(1 0 0 -1 13 42)" fill="#7B0600"/>
<rect width="2" height="2" transform="matrix(1 0 0 -1 16 45)" fill="#7B0600"/>
<rect width="2" height="2" transform="matrix(1 0 0 -1 16 45)" fill="#7B0600"/>
<rect width="2" height="2" transform="matrix(1 0 0 -1 16 39)" fill="#7B0600"/>
<rect width="2" height="2" transform="matrix(1 0 0 -1 16 39)" fill="#7B0600"/>
<rect width="2" height="2" transform="matrix(1 0 0 -1 19 42)" fill="#7B0600"/>
<rect width="2" height="2" transform="matrix(1 0 0 -1 19 42)" fill="#7B0600"/>
<rect width="2" height="2" transform="matrix(1 0 0 -1 22 45)" fill="#7B0600"/>
<rect width="2" height="2" transform="matrix(1 0 0 -1 22 45)" fill="#7B0600"/>
<rect width="2" height="2" transform="matrix(1 0 0 -1 22 39)" fill="#7B0600"/>
<rect width="2" height="2" transform="matrix(1 0 0 -1 22 39)" fill="#7B0600"/>
<rect width="2" height="2" transform="matrix(1 0 0 -1 28 45)" fill="#7B0600"/>
<rect width="2" height="2" transform="matrix(1 0 0 -1 28 45)" fill="#7B0600"/>
<rect width="2" height="2" transform="matrix(1 0 0 -1 28 39)" fill="#7B0600"/>
<rect width="2" height="2" transform="matrix(1 0 0 -1 28 39)" fill="#7B0600"/>
<rect width="2" height="2" transform="matrix(1 0 0 -1 31 42)" fill="#7B0600"/>
<rect width="2" height="2" transform="matrix(1 0 0 -1 31 42)" fill="#7B0600"/>
<rect width="2" height="2" transform="matrix(1 0 0 -1 25 42)" fill="#7B0600"/>
<rect width="2" height="2" transform="matrix(1 0 0 -1 25 42)" fill="#7B0600"/>
<rect x="5" y="11" width="2" height="2" transform="rotate(90 5 11)" fill="#7B0600"/>
<rect x="5" y="11" width="2" height="2" transform="rotate(90 5 11)" fill="#7B0600"/>
<rect x="8" y="14" width="2" height="2" transform="rotate(90 8 14)" fill="#7B0600"/>
<rect x="8" y="14" width="2" height="2" transform="rotate(90 8 14)" fill="#7B0600"/>
<rect x="11" y="17" width="2" height="2" transform="rotate(90 11 17)" fill="#7B0600"/>
<rect x="11" y="17" width="2" height="2" transform="rotate(90 11 17)" fill="#7B0600"/>
<rect x="5" y="17" width="2" height="2" transform="rotate(90 5 17)" fill="#7B0600"/>
<rect x="5" y="17" width="2" height="2" transform="rotate(90 5 17)" fill="#7B0600"/>
<rect x="8" y="20" width="2" height="2" transform="rotate(90 8 20)" fill="#7B0600"/>
<rect x="8" y="20" width="2" height="2" transform="rotate(90 8 20)" fill="#7B0600"/>
<rect x="11" y="23" width="2" height="2" transform="rotate(90 11 23)" fill="#7B0600"/>
<rect x="11" y="23" width="2" height="2" transform="rotate(90 11 23)" fill="#7B0600"/>
<rect x="5" y="23" width="2" height="2" transform="rotate(90 5 23)" fill="#7B0600"/>
<rect x="5" y="23" width="2" height="2" transform="rotate(90 5 23)" fill="#7B0600"/>
<rect x="8" y="26" width="2" height="2" transform="rotate(90 8 26)" fill="#7B0600"/>
<rect x="8" y="26" width="2" height="2" transform="rotate(90 8 26)" fill="#7B0600"/>
<rect x="11" y="29" width="2" height="2" transform="rotate(90 11 29)" fill="#7B0600"/>
<rect x="11" y="29" width="2" height="2" transform="rotate(90 11 29)" fill="#7B0600"/>
<rect x="8" y="32" width="2" height="2" transform="rotate(90 8 32)" fill="#7B0600"/>
<rect x="8" y="32" width="2" height="2" transform="rotate(90 8 32)" fill="#7B0600"/>
<rect x="5" y="35" width="2" height="2" transform="rotate(90 5 35)" fill="#7B0600"/>
<rect x="5" y="35" width="2" height="2" transform="rotate(90 5 35)" fill="#7B0600"/>
<rect x="5" y="29" width="2" height="2" transform="rotate(90 5 29)" fill="#7B0600"/>
<rect x="5" y="29" width="2" height="2" transform="rotate(90 5 29)" fill="#7B0600"/>
<rect x="5" y="44" width="2" height="2" transform="rotate(90 5 44)" fill="#7B0600"/>
<rect x="5" y="44" width="2" height="2" transform="rotate(90 5 44)" fill="#7B0600"/>
<rect x="8" y="47" width="2" height="2" transform="rotate(90 8 47)" fill="#7B0600"/>
<rect x="8" y="47" width="2" height="2" transform="rotate(90 8 47)" fill="#7B0600"/>
<rect x="11" y="50" width="2" height="2" transform="rotate(90 11 50)" fill="#7B0600"/>
<rect x="11" y="50" width="2" height="2" transform="rotate(90 11 50)" fill="#7B0600"/>
<rect x="5" y="50" width="2" height="2" transform="rotate(90 5 50)" fill="#7B0600"/>
<rect x="5" y="50" width="2" height="2" transform="rotate(90 5 50)" fill="#7B0600"/>
<rect x="8" y="53" width="2" height="2" transform="rotate(90 8 53)" fill="#7B0600"/>
<rect x="8" y="53" width="2" height="2" transform="rotate(90 8 53)" fill="#7B0600"/>
<rect x="11" y="56" width="2" height="2" transform="rotate(90 11 56)" fill="#7B0600"/>
<rect x="11" y="56" width="2" height="2" transform="rotate(90 11 56)" fill="#7B0600"/>
<rect x="5" y="56" width="2" height="2" transform="rotate(90 5 56)" fill="#7B0600"/>
<rect x="5" y="56" width="2" height="2" transform="rotate(90 5 56)" fill="#7B0600"/>
<rect x="8" y="59" width="2" height="2" transform="rotate(90 8 59)" fill="#7B0600"/>
<rect x="8" y="59" width="2" height="2" transform="rotate(90 8 59)" fill="#7B0600"/>
<rect x="11" y="62" width="2" height="2" transform="rotate(90 11 62)" fill="#7B0600"/>
<rect x="11" y="62" width="2" height="2" transform="rotate(90 11 62)" fill="#7B0600"/>
<rect x="8" y="65" width="2" height="2" transform="rotate(90 8 65)" fill="#7B0600"/>
<rect x="8" y="65" width="2" height="2" transform="rotate(90 8 65)" fill="#7B0600"/>
<rect x="5" y="68" width="2" height="2" transform="rotate(90 5 68)" fill="#7B0600"/>
<rect x="5" y="68" width="2" height="2" transform="rotate(90 5 68)" fill="#7B0600"/>
<rect x="5" y="62" width="2" height="2" transform="rotate(90 5 62)" fill="#7B0600"/>
<rect x="5" y="62" width="2" height="2" transform="rotate(90 5 62)" fill="#7B0600"/>
<rect x="7" y="75" width="2" height="2" fill="#7B0600"/>
<rect x="7" y="75" width="2" height="2" fill="#7B0600"/>
<rect x="10" y="72" width="2" height="2" fill="#7B0600"/>
<rect x="10" y="72" width="2" height="2" fill="#7B0600"/>
<rect x="13" y="69" width="2" height="2" fill="#7B0600"/>
<rect x="13" y="69" width="2" height="2" fill="#7B0600"/>
<rect x="13" y="75" width="2" height="2" fill="#7B0600"/>
<rect x="13" y="75" width="2" height="2" fill="#7B0600"/>
<rect x="16" y="72" width="2" height="2" fill="#7B0600"/>
<rect x="16" y="72" width="2" height="2" fill="#7B0600"/>
<rect x="19" y="69" width="2" height="2" fill="#7B0600"/>
<rect x="19" y="69" width="2" height="2" fill="#7B0600"/>
<rect x="19" y="75" width="2" height="2" fill="#7B0600"/>
<rect x="19" y="75" width="2" height="2" fill="#7B0600"/>
<rect x="22" y="72" width="2" height="2" fill="#7B0600"/>
<rect x="22" y="72" width="2" height="2" fill="#7B0600"/>
<rect x="25" y="69" width="2" height="2" fill="#7B0600"/>
<rect x="25" y="69" width="2" height="2" fill="#7B0600"/>
<rect x="28" y="72" width="2" height="2" fill="#7B0600"/>
<rect x="28" y="72" width="2" height="2" fill="#7B0600"/>
<rect x="31" y="75" width="2" height="2" fill="#7B0600"/>
<rect x="31" y="75" width="2" height="2" fill="#7B0600"/>
<rect x="25" y="75" width="2" height="2" fill="#7B0600"/>
<rect x="25" y="75" width="2" height="2" fill="#7B0600"/>
<rect width="2" height="2" transform="matrix(1 0 0 -1 7 6)" fill="#7B0600"/>
<rect width="2" height="2" transform="matrix(1 0 0 -1 7 6)" fill="#7B0600"/>
<rect width="2" height="2" transform="matrix(1 0 0 -1 10 9)" fill="#7B0600"/>
<rect width="2" height="2" transform="matrix(1 0 0 -1 10 9)" fill="#7B0600"/>
<rect width="2" height="2" transform="matrix(1 0 0 -1 13 12)" fill="#7B0600"/>
<rect width="2" height="2" transform="matrix(1 0 0 -1 13 12)" fill="#7B0600"/>
<rect width="2" height="2" transform="matrix(1 0 0 -1 13 6)" fill="#7B0600"/>
<rect width="2" height="2" transform="matrix(1 0 0 -1 13 6)" fill="#7B0600"/>
<rect width="2" height="2" transform="matrix(1 0 0 -1 16 9)" fill="#7B0600"/>
<rect width="2" height="2" transform="matrix(1 0 0 -1 16 9)" fill="#7B0600"/>
<rect width="2" height="2" transform="matrix(1 0 0 -1 19 12)" fill="#7B0600"/>
<rect width="2" height="2" transform="matrix(1 0 0 -1 19 12)" fill="#7B0600"/>
<rect width="2" height="2" transform="matrix(1 0 0 -1 19 6)" fill="#7B0600"/>
<rect width="2" height="2" transform="matrix(1 0 0 -1 19 6)" fill="#7B0600"/>
<rect width="2" height="2" transform="matrix(1 0 0 -1 22 9)" fill="#7B0600"/>
<rect width="2" height="2" transform="matrix(1 0 0 -1 22 9)" fill="#7B0600"/>
<rect width="2" height="2" transform="matrix(1 0 0 -1 25 12)" fill="#7B0600"/>
<rect width="2" height="2" transform="matrix(1 0 0 -1 25 12)" fill="#7B0600"/>
<rect width="2" height="2" transform="matrix(1 0 0 -1 28 9)" fill="#7B0600"/>
<rect width="2" height="2" transform="matrix(1 0 0 -1 28 9)" fill="#7B0600"/>
<rect width="2" height="2" transform="matrix(1 0 0 -1 31 6)" fill="#7B0600"/>
<rect width="2" height="2" transform="matrix(1 0 0 -1 31 6)" fill="#7B0600"/>
<rect width="2" height="2" transform="matrix(1 0 0 -1 25 6)" fill="#7B0600"/>
<rect width="2" height="2" transform="matrix(1 0 0 -1 25 6)" fill="#7B0600"/>
</g>
</g>
<defs>
<clipPath id="clip0_11_353">
<rect width="40" height="80" fill="white"/>
</clipPath>
<clipPath id="clip1_11_353">
<rect width="34" height="74" fill="white" transform="translate(3 3)"/>
</clipPath>
</defs>
</svg>
